<?xml version="1.0" standalone="no"?>
<!DOCTYPE svg PUBLIC "-//W3C//DTD SVG 20010904//EN"
 "http://www.w3.org/TR/2001/REC-SVG-20010904/DTD/svg10.dtd">
<svg version="1.0" xmlns="http://www.w3.org/2000/svg"
 width="1000.000000pt" height="799.000000pt" viewBox="0 0 1000.000000 799.000000"
 preserveAspectRatio="xMidYMid meet">

<g transform="translate(0.000000,799.000000) scale(0.100000,-0.100000)"
fill="#000000" stroke="none">
<path d="M4808 7830 c-78 -40 -126 -87 -164 -160 -24 -47 -27 -186 -4 -183
102 14 230 23 322 24 137 0 118 17 -30 26 -51 3 -95 11 -99 16 -9 14 204 0
284 -18 65 -15 156 -56 169 -76 4 -7 0 -9 -12 -5 -127 39 -427 31 -609 -17
l-50 -13 -3 -64 c-2 -50 -8 -69 -24 -84 -19 -18 -20 -26 -14 -119 7 -109 19
-147 53 -162 16 -7 24 -21 29 -53 9 -59 -6 -412 -17 -412 -14 0 -18 17 -26
120 -8 94 -8 95 -33 92 -59 -8 -277 -136 -288 -170 -4 -13 152 -92 181 -92 9
0 19 -4 22 -10 7 -12 -33 -5 -135 24 -138 39 -291 26 -412 -35 -63 -32 -165
-135 -194 -197 -25 -52 -28 -67 -28 -182 -1 -69 3 -156 7 -195 9 -75 1 -83
-14 -13 -24 107 -40 148 -54 140 -59 -32 -165 -171 -165 -215 0 -10 15 -37 34
-60 31 -39 34 -49 38 -125 5 -82 5 -82 -16 -68 -15 9 -23 28 -27 64 -9 66 -47
132 -101 172 -58 43 -190 105 -261 123 -81 21 -136 57 -207 134 -101 110 -117
163 -80 261 11 29 20 70 20 91 l0 40 53 10 c92 18 570 66 1077 107 l205 17 65
63 65 64 -82 0 c-95 0 -345 -20 -698 -55 -240 -25 -758 -85 -762 -89 -1 -1 -5
-55 -9 -119 -6 -110 -9 -119 -32 -137 -17 -14 -40 -20 -77 -20 -39 0 -56 -5
-70 -20 -14 -15 -21 -17 -31 -9 -8 6 -12 15 -9 19 12 19 94 53 130 54 l40 1 7
50 c3 28 7 87 7 131 1 75 -1 83 -25 108 -32 31 -58 33 -103 5 -21 -13 -44 -19
-60 -16 -36 7 -69 -8 -83 -38 -9 -20 -18 -25 -50 -25 -39 0 -78 -27 -78 -53 0
-8 -19 -30 -41 -51 l-41 -37 4 -82 c4 -62 11 -94 30 -133 35 -67 100 -129 174
-164 56 -27 62 -33 68 -67 25 -151 193 -381 415 -567 135 -113 576 -376 631
-376 11 0 70 22 130 50 60 28 114 50 120 50 14 0 75 64 97 101 10 16 20 29 24
29 13 0 27 -25 40 -70 16 -57 38 -90 114 -170 68 -71 79 -98 134 -306 16 -61
36 -123 45 -136 17 -27 108 -108 161 -145 66 -46 247 -144 328 -178 83 -35 96
-50 25 -28 -116 34 -108 34 -117 10 -13 -33 -34 -189 -30 -216 5 -31 89 -64
248 -97 62 -13 116 -26 120 -30 10 -12 -191 6 -253 22 -74 19 -132 48 -140 69
-11 30 -6 159 9 224 13 52 13 66 3 71 -54 30 -186 118 -271 182 l-102 78 -3
-72 c-3 -66 0 -76 39 -153 56 -110 49 -144 -10 -47 -24 40 -47 75 -51 77 -20
12 -252 -246 -405 -449 -79 -105 -165 -224 -165 -229 0 -2 25 -7 56 -11 121
-14 286 -87 437 -194 104 -73 287 -236 287 -255 0 -6 -15 3 -33 20 -94 89
-396 286 -522 339 -59 25 -175 54 -217 54 -48 0 -70 -28 -103 -132 -43 -135
-57 -240 -62 -458 l-5 -205 51 -109 c28 -60 49 -111 47 -113 -5 -5 -59 82 -87
139 -13 27 -27 48 -32 48 -11 0 -36 -59 -60 -145 -16 -57 -21 -116 -26 -320
-7 -244 -8 -251 -34 -305 -17 -37 -32 -95 -44 -170 -23 -156 -23 -555 2 -810
28 -297 28 -320 11 -405 -19 -93 -50 -153 -127 -244 l-57 -68 71 -13 c39 -7
87 -18 107 -26 31 -11 18 -13 -123 -13 -89 -1 -167 -6 -178 -11 -28 -16 -25
-65 6 -86 21 -14 56 -15 307 -9 291 7 341 13 358 45 19 35 11 124 -15 181 -35
79 -59 226 -50 324 9 106 38 241 79 362 42 123 69 177 115 228 47 51 96 168
111 267 21 131 -4 548 -32 548 -10 0 -106 -197 -160 -325 -25 -60 -28 -64 -23
-30 10 66 64 207 123 322 30 59 78 153 106 209 28 56 78 134 110 175 76 94
431 448 601 599 72 63 159 145 195 182 57 59 70 68 101 68 32 0 43 -7 84 -56
26 -30 102 -99 169 -152 127 -101 158 -128 296 -257 234 -221 433 -460 484
-583 15 -34 42 -84 61 -111 19 -27 44 -68 55 -93 25 -56 92 -289 85 -296 -2
-3 -9 8 -15 24 -36 96 -68 170 -108 249 -37 74 -46 87 -53 70 -4 -11 -15 -108
-23 -215 -24 -311 -1 -425 131 -645 95 -159 137 -282 155 -453 13 -133 0 -294
-32 -388 -34 -97 -23 -226 19 -238 9 -3 149 -6 311 -8 270 -3 298 -1 323 15
17 11 27 26 27 42 0 41 -36 49 -214 48 -90 -1 -153 2 -146 7 8 5 57 16 109 26
53 10 98 19 99 20 2 1 -15 19 -37 40 -52 47 -116 174 -136 272 -19 93 -19 200
0 377 43 396 25 810 -42 995 -13 35 -18 99 -23 290 -6 206 -10 258 -29 325
-25 93 -51 165 -60 165 -3 0 -18 -24 -33 -53 -16 -28 -46 -72 -68 -97 l-39
-45 59 120 60 120 0 115 c-1 296 -56 571 -131 649 -20 22 -28 23 -88 18 -107
-9 -204 -49 -381 -155 -41 -25 -90 -56 -107 -70 -18 -13 -33 -20 -33 -15 0 26
193 168 283 207 68 31 177 63 241 71 l48 7 -29 31 c-16 18 -50 66 -76 107 -91
149 -275 361 -398 462 l-72 58 -31 -23 c-189 -142 -388 -251 -486 -266 -75
-12 -97 0 -28 15 133 31 325 148 461 281 l57 57 0 74 0 74 -37 -30 c-21 -16
-47 -39 -57 -51 -11 -12 -23 -21 -27 -21 -5 0 21 38 57 85 41 54 70 103 80
136 47 158 127 312 201 389 39 41 83 127 83 165 0 19 22 65 31 65 4 0 10 -13
14 -30 7 -31 78 -106 110 -116 11 -4 62 -26 113 -50 51 -24 104 -44 118 -44
42 0 231 105 451 251 193 127 364 276 458 398 67 86 91 133 111 214 22 87 55
131 123 163 31 15 70 38 87 51 61 46 115 219 93 298 -7 25 -21 43 -45 57 -19
11 -34 25 -34 32 0 24 -46 56 -78 56 -25 0 -35 6 -42 24 -12 32 -39 46 -88 46
-26 0 -45 6 -57 20 -21 24 -62 26 -92 5 -35 -24 -47 -78 -39 -179 8 -113 20
-131 87 -123 40 5 48 3 52 -12 2 -11 17 -25 33 -32 15 -8 29 -20 32 -26 6 -21
-40 -15 -64 8 -13 12 -41 23 -66 25 -82 10 -87 12 -97 52 -6 20 -11 78 -11
128 l0 91 -57 11 c-86 17 -272 40 -413 51 -69 6 -235 20 -370 31 -399 33 -720
56 -718 50 2 -3 32 -33 68 -67 l65 -62 205 -11 c347 -19 866 -69 1063 -103
l69 -12 4 -63 c2 -35 11 -80 19 -99 8 -19 15 -46 15 -60 0 -43 -47 -126 -108
-189 -61 -64 -101 -87 -232 -131 -196 -65 -305 -160 -324 -282 -4 -24 -13 -53
-21 -64 -14 -20 -15 -15 -15 59 0 74 3 85 35 138 l35 58 -25 53 c-27 55 -91
122 -144 149 -30 16 -31 16 -31 -6 0 -29 -38 -166 -51 -187 -8 -12 -9 -5 -5
24 43 309 29 406 -81 542 -43 54 -106 91 -191 113 -122 32 -181 34 -285 10
-56 -12 -118 -20 -153 -18 l-59 3 113 38 c61 21 112 43 112 48 0 24 -175 130
-272 165 -48 16 -47 17 -56 -102 -5 -61 -11 -89 -21 -92 -12 -4 -13 31 -9 222
l5 226 25 20 c21 16 29 36 43 112 19 106 14 158 -15 158 -19 0 -20 8 -20 114
0 218 -42 336 -146 409 -80 56 -117 66 -249 66 -120 0 -120 0 -197 -39z m220
-2145 c0 -104 -3 -201 -7 -215 -7 -24 -7 -24 -14 7 -21 103 -29 309 -18 440 7
75 15 141 19 147 10 16 20 -162 20 -379z m-990 -110 c37 -34 91 -98 120 -141
59 -87 111 -132 187 -160 40 -15 76 -19 180 -18 126 0 209 15 309 53 16 7 31
10 33 7 6 -6 -89 -49 -182 -82 -72 -26 -93 -29 -205 -29 -116 0 -129 2 -180
27 -86 42 -133 89 -221 221 -45 67 -97 142 -117 166 -49 61 -12 39 76 -44z
m1964 -27 c-38 -51 -82 -115 -98 -143 -43 -75 -115 -142 -191 -178 -129 -60
-288 -47 -487 39 -47 20 -84 39 -82 41 2 2 54 -11 117 -29 101 -29 128 -33
234 -33 108 1 127 3 186 28 75 32 114 68 188 177 44 65 188 206 199 195 2 -2
-28 -45 -66 -97z"/>
<path d="M8613 7432 c-28 -17 -124 -265 -146 -377 -4 -16 -29 -136 -56 -265
-27 -129 -57 -279 -66 -332 -10 -56 -22 -98 -29 -98 -6 0 -27 4 -46 10 -28 7
-540 100 -555 100 -2 0 3 -17 10 -37 8 -21 16 -50 19 -64 4 -20 13 -28 38 -32
175 -29 523 -90 525 -91 2 -1 -5 -87 -14 -192 -10 -114 -16 -303 -17 -479 -1
-295 6 -368 41 -456 14 -35 21 -40 91 -63 107 -35 414 -110 552 -135 63 -12
185 -28 270 -36 179 -17 166 -22 222 80 48 86 72 150 118 320 45 168 81 336
105 500 25 176 13 159 106 151 78 -6 79 -6 89 18 5 14 12 47 16 73 l6 48 -79
20 -78 20 0 40 c1 22 7 113 14 203 25 300 6 637 -45 794 -15 47 -17 48 -81 68
-36 11 -68 19 -70 17 -2 -2 4 -24 12 -48 60 -168 67 -528 19 -909 -36 -294
-110 -706 -135 -763 -9 -21 -9 -20 -5 3 32 171 78 475 86 563 6 62 15 166 22
232 18 194 15 588 -6 730 -9 66 -24 141 -32 167 -17 51 -26 56 -133 73 -40 7
-43 6 -37 -11 83 -214 81 -702 -4 -1184 -38 -212 -118 -575 -126 -567 -2 2 7
57 20 123 82 402 136 920 122 1179 -12 222 -50 448 -81 478 -12 13 -143 42
-151 34 -2 -2 7 -60 21 -128 76 -373 36 -946 -110 -1587 -30 -131 -26 -70 9
139 53 313 75 506 87 767 22 443 -24 821 -101 838 -14 3 -41 10 -60 15 -58 15
-59 14 -44 -48 64 -270 67 -662 8 -1073 -30 -214 -141 -723 -151 -694 -2 6 12
96 31 200 38 205 80 524 96 728 20 256 6 728 -24 817 -3 8 -10 32 -16 55 -10
40 -12 41 -58 47 -26 3 -62 9 -80 13 -32 7 -32 7 -21 -22 64 -168 81 -578 39
-910 -6 -43 -15 -120 -20 -169 -16 -152 -116 -672 -127 -661 -2 2 10 79 27
172 75 423 105 765 97 1121 -6 267 -19 363 -59 435 -24 44 -36 52 -55 40z
m-83 -933 c16 -39 7 -246 -15 -339 -19 -78 -52 -165 -70 -180 -29 -24 -65 25
-65 91 0 38 15 37 29 -1 5 -16 15 -30 21 -30 33 0 72 186 68 325 -3 110 -14
126 -48 70 -28 -45 -36 -39 -15 11 37 90 72 109 95 53z"/>
<path d="M1336 7397 c-52 -78 -76 -247 -76 -537 0 -260 18 -476 70 -840 53
-365 53 -368 35 -300 -21 80 -81 417 -111 620 -22 145 -27 224 -31 462 -6 308
1 389 41 530 l23 78 -31 -1 c-17 0 -53 -6 -81 -13 -49 -11 -50 -12 -63 -61
-22 -85 -42 -332 -42 -515 0 -340 32 -662 106 -1063 34 -187 38 -214 30 -206
-6 5 -68 249 -95 369 -32 143 -79 493 -92 685 -17 262 7 583 57 749 6 17 2 18
-32 12 -110 -20 -109 -19 -133 -101 -38 -126 -51 -231 -57 -450 -9 -296 15
-596 80 -995 13 -80 27 -170 31 -200 3 -30 9 -66 12 -80 3 -14 3 -22 0 -19 -9
8 -94 430 -122 609 -35 220 -49 454 -42 730 6 230 20 341 56 433 10 24 8 27
-12 26 -39 -1 -136 -24 -147 -35 -18 -18 -60 -259 -68 -392 -21 -331 25 -844
113 -1261 14 -63 23 -116 21 -118 -11 -11 -69 250 -116 512 -93 530 -104 883
-34 1153 13 51 24 95 24 98 0 7 -25 1 -107 -22 -51 -15 -53 -17 -68 -67 -29
-98 -46 -233 -52 -422 -9 -299 19 -633 88 -1044 21 -128 39 -236 38 -240 -4
-30 -100 439 -118 579 -64 490 -71 810 -22 1043 11 54 23 103 27 108 7 11 -30
4 -95 -20 -44 -16 -45 -17 -63 -86 -45 -174 -60 -480 -37 -756 6 -73 12 -161
13 -194 l1 -60 -40 -9 c-22 -5 -57 -13 -79 -18 l-38 -9 6 -47 c4 -26 12 -59
17 -73 10 -27 11 -27 89 -22 l78 6 5 -29 c3 -16 11 -63 17 -104 30 -202 111
-556 157 -683 32 -91 85 -194 118 -230 22 -23 32 -26 63 -22 20 3 115 14 211
25 190 23 297 43 471 90 63 17 151 40 194 51 136 35 151 49 177 164 20 86 17
654 -4 875 -8 91 -14 166 -13 167 1 1 123 23 271 48 149 25 276 48 283 50 6 2
12 14 12 25 0 11 7 37 15 57 8 20 13 38 11 40 -4 4 -421 -67 -546 -93 -35 -7
-66 -12 -68 -10 -2 2 -12 57 -23 122 -81 471 -190 873 -253 937 -23 23 -33 22
-50 -6z m179 -903 c18 -19 55 -88 55 -105 0 -6 -10 1 -22 17 -24 31 -38 44
-50 44 -12 0 -9 -219 3 -285 11 -60 40 -128 59 -140 6 -4 16 7 23 24 15 41 27
39 27 -3 0 -74 -35 -112 -72 -79 -55 50 -113 438 -76 518 13 29 30 32 53 9z
m-128 -856 c-3 -8 -6 -5 -6 6 -1 11 2 17 5 13 3 -3 4 -12 1 -19z"/>
<path d="M4507 7019 c-65 -40 -87 -79 -87 -154 0 -40 -7 -74 -19 -98 -18 -35
-18 -37 -1 -37 38 0 93 77 114 162 3 15 22 39 41 54 23 17 32 30 26 38 -4 6
-12 23 -17 38 l-9 27 -48 -30z"/>
<path d="M4577 6879 c-23 -18 -77 -104 -77 -124 0 -12 20 -3 74 32 52 34 56
40 56 75 0 44 -12 47 -53 17z"/>
</g>
</svg>
